# xmcd
#
# Track frame offsets:
#	150
#	13656
#	26781
#	44173
#	62933
#	76544
#	89071
#	105466
#	121125
#	141858
#	155128
#	167157
#	177501
#	190886
#	204035
#	222661
#	241453
#	254137
#	267876
#	284257
#	299874
#	320569
#	333839
#	345847
#
# Disc length: 4747 seconds
#
# Revision: 0
# Processed by: cddbd v1.5.2PL0 Copyright (c) Steve Scherf et al.
# Submitted via: EasyCDDAExtractor 16.0.6.1
#
DISCID=78128918
DTITLE=Tapio Heinonen - en kadu mit‰‰n - kaikki levytykset cd 5
DYEAR=1900
DGENRE=
TTITLE0=Is‰n neuvot
TTITLE1=Tilaan toisen kahvin
TTITLE2=Sunnuntai kun k‰teen j‰‰
TTITLE3=Yksin‰inen mies
TTITLE4=Sua odotin kauan
TTITLE5=Aamu koittaa
TTITLE6=Korttihai
TTITLE7=Nuorehko nainen
TTITLE8=Vain tavallinen mies
TTITLE9=Jotain joka s‰ilyy ainiaan
TTITLE10=Huomenna kenties
TTITLE11=Vanha yst‰v‰
TTITLE12=Du ‰r alltid min
TTITLE13=Ensam igen
TTITLE14=En solig sondag morgon
TTITLE15=En ensam man
TTITLE16=Min fina lilla marianne
TTITLE17=Morgon i mitt liv
TTITLE18=Spelaren
TTITLE19=Kontaktannonsen
TTITLE20=Den store fixar'n
TTITLE21=Om han varit lite mer som vi
TTITLE22=Kanske i morgon
TTITLE23=En k‰r gammal v‰n
EXTD=
EXTT0=
EXTT1=
EXTT2=
EXTT3=
EXTT4=
EXTT5=
EXTT6=
EXTT7=
EXTT8=
EXTT9=
EXTT10=
EXTT11=
EXTT12=
EXTT13=
EXTT14=
EXTT15=
EXTT16=
EXTT17=
EXTT18=
EXTT19=
EXTT20=
EXTT21=
EXTT22=
EXTT23=
PLAYORDER=
